<svg width="800" height="500" viewBox="0 0 800 500" xmlns="http://www.w3.org/2000/svg">
  <defs>
    <linearGradient id="agbg" x1="0" y1="0" x2="800" y2="500" gradientUnits="userSpaceOnUse">
      <stop offset="0" stop-color="#141033"/>
      <stop offset="1" stop-color="#050b18"/>
    </linearGradient>
    <radialGradient id="agaura" cx="50%" cy="48%" r="45%">
      <stop offset="0" stop-color="#e8935f" stop-opacity="0.45"/>
      <stop offset="0.6" stop-color="#8f6fd9" stop-opacity="0.18"/>
      <stop offset="1" stop-color="#8f6fd9" stop-opacity="0"/>
    </radialGradient>
  </defs>
  <rect width="800" height="500" fill="url(#agbg)"/>
  <circle cx="400" cy="250" r="190" fill="url(#agaura)"/>
  <circle cx="120" cy="90" r="1.4" fill="#ffffff" opacity="0.5"/>
  <circle cx="700" cy="120" r="1.6" fill="#ffffff" opacity="0.4"/>
  <circle cx="660" cy="400" r="1.2" fill="#ffffff" opacity="0.4"/>
  <circle cx="150" cy="400" r="1.3" fill="#ffffff" opacity="0.4"/>

  <!-- meditating figure silhouette -->
  <g transform="translate(400,270)" fill="#1a1436" stroke="#e8935f" stroke-opacity="0.65" stroke-width="2">
    <circle cx="0" cy="-118" r="24"/>
    <path d="M -55 40 Q -60 -40 0 -92 Q 60 -40 55 40 Q 60 70 20 70 L 20 55 Q 0 62 -20 55 L -20 70 Q -60 70 -55 40 Z"/>
    <path d="M -55 20 Q -95 20 -95 -10" fill="none"/>
    <path d="M 55 20 Q 95 20 95 -10" fill="none"/>
  </g>

  <text x="40" y="452" font-family="Arial, sans-serif" font-size="15" letter-spacing="3" fill="#e8935f" fill-opacity="0.9">AI GURU</text>
  <text x="760" y="40" text-anchor="end" font-family="Arial, sans-serif" font-size="11" letter-spacing="2" fill="#ffffff" fill-opacity="0.35">PLACEHOLDER</text>
</svg>
